# xmcd
#
# Track frame offsets:
# 150
# 20327
# 38179
# 57981
# 73958
# 92485
# 112362
# 134039
# 155416
# 181668
# 202970
# 215272
#
# Disc length: 3166 seconds
#
#
# Revision: 0
# Processed by: cddbd v1.4PL0 Copyright (c) Steve Scherf et al.
# Submitted via: FreeRIP 2.51 
#
DISCID=ad0c5c0c
DTITLE=Francis Cabrel - Hors saison
DYEAR=1999
DGENRE=Blues
TTITLE0=Le monde est sourd
TTITLE1=Cent ans de plus
TTITLE2=Presque rien
TTITLE3=Le reste du temps
TTITLE4=Rien de nouveau
TTITLE5=Loin devant
TTITLE6=Depuis toujours
TTITLE7=Comme eux
TTITLE8=Hell nep avenue
TTITLE9=Hors-saison
TTITLE10=Madame X
TTITLE11=La belle Debbie
EXTD=Inversion des titre 11 et 12 ?
EXTT0=
EXTT1=
EXTT2=
EXTT3=
EXTT4=
EXTT5=
EXTT6=
EXTT7=
EXTT8=
EXTT9=
EXTT10=
EXTT11=
PLAYORDER=
